<?xml version="1.0" encoding="utf-8"?>
<!-- Generator: Adobe Illustrator 16.0.0, SVG Export Plug-In . SVG Version: 6.00 Build 0)  -->
<!DOCTYPE svg PUBLIC "-//W3C//DTD SVG 1.1//EN" "http://www.w3.org/Graphics/SVG/1.1/DTD/svg11.dtd">
<svg version="1.1" id="Layer_1" xmlns="http://www.w3.org/2000/svg" xmlns:xlink="http://www.w3.org/1999/xlink" x="0px" y="0px"
	 width="250px" height="500px" viewBox="0 0 250 500" enable-background="new 0 0 250 500" xml:space="preserve">
<g>
	<path fill="#FFFFFF" d="M202.889,137.744c0.086-0.641,0.128-1.323,0.128-2.006V125.12c0-9.129-7.422-16.506-16.506-16.506h-6.185
		c-9.123,0-16.506,7.42-16.506,16.506v10.618c0,0.683,0.044,1.321,0.13,1.962c-3.455,0.727-6.102,3.84-6.102,7.508v20.299
		c0,4.226,3.457,7.68,7.68,7.68h35.697c4.224,0,7.678-3.454,7.678-7.68v-20.299C208.903,141.58,206.304,138.509,202.889,137.744
		L202.889,137.744z M185.913,156.167c-0.341,0.253-0.427,0.513-0.427,0.896v5.459c0,1.151-0.936,2.089-2.087,2.089
		c-1.153,0-2.092-0.938-2.092-2.089v-5.459c0-0.383-0.084-0.594-0.383-0.852c-1.664-1.195-2.176-3.284-1.365-5.119
		c0.811-1.791,2.772-2.815,4.605-2.429c2.05,0.425,3.499,2.046,3.499,4.133C187.62,154.164,187.065,155.313,185.913,156.167
		L185.913,156.167z M194.615,135.738c0,0.64-0.086,1.237-0.21,1.792h-22.01c-0.128-0.598-0.213-1.193-0.213-1.792V125.12
		c0-4.482,3.625-8.104,8.102-8.104h6.185c4.479,0,8.104,3.623,8.104,8.104v10.618H194.615z M194.615,135.738"/>
	<path fill="#FFFFFF" d="M191.492,88.64v-20.97c0-10.692-8.778-19.472-19.473-19.472H61.568c-10.694,0-19.472,8.779-19.472,19.472
		v69.974c0,10.694,8.777,19.473,19.472,19.473h89.421V146.43H61.329c-3.884,0-8.547-4.662-8.547-8.549l0,0V88.677h129.707
		 M52.781,65.931c0-3.883,3.165-7.05,7.049-7.05h115.605c3.888,0,7.053,3.167,7.053,7.05v4.184H52.781V65.931z M54.279,67.43"/>
	<path fill="#FFFFFF" d="M106.798,117.064c-1.117-1.901-2.619-3.566-4.453-4.776c-2.239-1.462-4.9-2.34-7.774-2.34
		c-3.337,0-6.377,1.21-8.802,3.154c-2.338-1.67-5.182-2.705-8.278-2.705c-7.849,0-14.241,6.384-14.241,14.242
		c0,1.186,0.196,2.324,0.464,3.421c0.48,1.914,1.354,3.676,2.521,5.199c2.607,3.381,6.66,5.603,11.255,5.603
		c3.377,0,6.434-1.224,8.886-3.196c2.306,1.662,5.139,2.651,8.193,2.651c7.816,0,14.186-6.354,14.186-14.185
		C108.757,121.556,108.007,119.162,106.798,117.064z M93.364,125.95H80.588c0.057,0.465,0.101,0.929,0.196,1.381
		c0.045,0.168,0.114,0.334,0.167,0.519h11.973c-0.241,0.762-0.533,1.492-0.9,2.184H81.711c0.272,0.588,0.581,1.153,0.919,1.688
		h8.294c-0.606,0.792-1.311,1.482-2.085,2.098c-0.028,0.028-0.054,0.073-0.099,0.101h-4.759c-1.845,1.294-4.07,2.071-6.489,2.071
		c-3.381,0-6.382-1.521-8.464-3.872c-1.283-1.442-2.228-3.185-2.637-5.157c-0.154-0.748-0.251-1.524-0.251-2.324
		c0-6.269,5.097-11.351,11.353-11.351c2.291,0,4.419,0.689,6.209,1.856c-0.141,0.172-0.284,0.326-0.409,0.508h6.731
		c0.379,0.381,0.662,0.846,0.973,1.268c0.225,0.312,0.491,0.592,0.691,0.917H81.94c-0.308,0.619-0.561,1.24-0.775,1.902h11.476
		c0.284,0.706,0.509,1.42,0.65,2.185H80.615c-0.099,0.604-0.168,1.211-0.182,1.84h13.054c0,0.154,0.043,0.311,0.043,0.465
		C93.531,124.821,93.432,125.389,93.364,125.95z"/>
	<rect x="183.377" y="88.188" fill="#FFFFFF" width="8.115" height="14.469"/>
</g>
<g>
	<path fill="#333333" d="M202.889,401.244c0.086-0.641,0.128-1.324,0.128-2.006v-10.619c0-9.129-7.422-16.506-16.506-16.506h-6.185
		c-9.123,0-16.506,7.421-16.506,16.506v10.619c0,0.682,0.044,1.32,0.13,1.961c-3.455,0.727-6.102,3.84-6.102,7.508v20.299
		c0,4.227,3.457,7.68,7.68,7.68h35.697c4.224,0,7.678-3.453,7.678-7.68v-20.299C208.903,405.08,206.304,402.009,202.889,401.244
		L202.889,401.244z M185.913,419.668c-0.341,0.253-0.427,0.512-0.427,0.895v5.46c0,1.151-0.936,2.089-2.087,2.089
		c-1.153,0-2.092-0.938-2.092-2.089v-5.46c0-0.383-0.084-0.594-0.383-0.852c-1.664-1.194-2.176-3.283-1.365-5.119
		c0.811-1.79,2.772-2.814,4.605-2.429c2.05,0.425,3.499,2.046,3.499,4.134C187.62,417.664,187.065,418.813,185.913,419.668
		L185.913,419.668z M194.615,399.238c0,0.64-0.086,1.236-0.21,1.791h-22.01c-0.128-0.598-0.213-1.193-0.213-1.791v-10.619
		c0-4.481,3.625-8.104,8.102-8.104h6.185c4.479,0,8.104,3.622,8.104,8.104v10.619H194.615z M194.615,399.238"/>
	<g>
		<g>
			<path fill="#333333" d="M191.492,352.14v-20.97c0-10.693-8.778-19.473-19.473-19.473H61.568
				c-10.694,0-19.472,8.779-19.472,19.473v69.973c0,10.694,8.777,19.474,19.472,19.474h89.421V409.93H61.329
				c-3.884,0-8.547-4.662-8.547-8.549l0,0v-49.204h129.707 M52.781,329.432c0-3.884,3.165-7.051,7.049-7.051h115.605
				c3.888,0,7.053,3.167,7.053,7.051v4.184H52.781V329.432z M54.279,330.93"/>
			<path fill="#333333" d="M106.798,380.564c-1.117-1.901-2.619-3.566-4.453-4.776c-2.239-1.462-4.9-2.34-7.774-2.34
				c-3.337,0-6.377,1.21-8.802,3.154c-2.338-1.671-5.182-2.705-8.278-2.705c-7.849,0-14.241,6.384-14.241,14.242
				c0,1.186,0.196,2.323,0.464,3.421c0.48,1.914,1.354,3.677,2.521,5.199c2.607,3.381,6.66,5.603,11.255,5.603
				c3.377,0,6.434-1.224,8.886-3.196c2.306,1.662,5.139,2.651,8.193,2.651c7.816,0,14.186-6.354,14.186-14.185
				C108.757,385.056,108.007,382.662,106.798,380.564z M93.364,389.45H80.588c0.057,0.466,0.101,0.929,0.196,1.382
				c0.045,0.168,0.114,0.334,0.167,0.519h11.973c-0.241,0.762-0.533,1.491-0.9,2.185H81.711c0.272,0.588,0.581,1.152,0.919,1.688
				h8.294c-0.606,0.791-1.311,1.482-2.085,2.098c-0.028,0.028-0.054,0.074-0.099,0.102h-4.759c-1.845,1.293-4.07,2.07-6.489,2.07
				c-3.381,0-6.382-1.521-8.464-3.872c-1.283-1.442-2.228-3.185-2.637-5.157c-0.154-0.747-0.251-1.523-0.251-2.323
				c0-6.269,5.097-11.351,11.353-11.351c2.291,0,4.419,0.689,6.209,1.856c-0.141,0.172-0.284,0.326-0.409,0.508h6.731
				c0.379,0.381,0.662,0.847,0.973,1.268c0.225,0.312,0.491,0.593,0.691,0.917H81.94c-0.308,0.619-0.561,1.24-0.775,1.901h11.476
				c0.284,0.706,0.509,1.421,0.65,2.185H80.615c-0.099,0.604-0.168,1.211-0.182,1.84h13.054c0,0.154,0.043,0.312,0.043,0.466
				C93.531,388.321,93.432,388.889,93.364,389.45z"/>
		</g>
		<rect x="183.377" y="351.688" fill="#333333" width="8.115" height="14.47"/>
	</g>
</g>
</svg>
